Coordinates
version=1
nRows=8
nColumns=40
inDegrees=yes

Units are S.I. units (second, meters, Newtons, ...)
Angles are in degrees.

endheader
time	pelvis_tilt	pelvis_list	pelvis_rotation	pelvis_tx	pelvis_ty	pelvis_tz	hip_flexion_r	hip_adduction_r	hip_rotation_r	knee_angle_r	knee_angle_r_beta	ankle_angle_r	subtalar_angle_r	mtp_angle_r	hip_flexion_l	hip_adduction_l	hip_rotation_l	knee_angle_l	knee_angle_l_beta	ankle_angle_l	subtalar_angle_l	mtp_angle_l	lumbar_extension	lumbar_bending	lumbar_rotation	arm_flex_r	arm_add_r	arm_rot_r	elbow_flex_r	pro_sup_r	wrist_flex_r	wrist_dev_r	arm_flex_l	arm_add_l	arm_rot_l	elbow_flex_l	pro_sup_l	wrist_flex_l	wrist_dev_l
      0.79000000	     -2.86417239	     -2.59739783	     -1.10394106	      0.16528752	      0.88203490	      1.54147447	     -6.40650667	      0.60714346	    -14.80735685	    -19.20477615	     -0.33518658	      9.67376694	      6.16913391	    -10.78448800	     35.08568105	      7.97711696	     18.63098307	    -25.40981694	     -0.44348497	      5.08448993	     11.99882485	      2.98369774	     -4.61467241	      2.10580151	      6.19083995	      5.65843921	    -14.44654671	     -7.04343245	     54.22878000	     89.95437384	      0.00000000	      0.00000000	    -10.32162627	      5.83156280	     23.38395618	     23.69732034	     89.95437384	      0.00000000	      0.00000000
      0.80000000	     -3.26261787	     -2.76994044	     -1.32232208	      0.17899767	      0.87968958	      1.54007248	     -6.73524899	      0.54003871	    -14.47193791	    -19.56812503	     -0.34152821	      9.36712439	      6.27197178	    -10.66901348	     35.77242539	      8.19641228	     19.41954181	    -23.97983534	     -0.41852708	      5.32340209	     11.04296166	      2.79962050	     -4.12350706	      2.21793231	      6.29838018	      5.88264540	    -14.85456391	     -6.51539718	     54.82491440	     89.95437384	      0.00000000	      0.00000000	    -10.62851162	      5.80329230	     23.39001981	     22.81280611	     89.95437384	      0.00000000	      0.00000000
      0.81000000	     -3.46008828	     -2.77913710	     -1.80286931	      0.19310561	      0.87766511	      1.53901711	     -7.13266073	      0.19278904	    -13.99679363	    -20.24453183	     -0.35333374	      9.17263276	      6.65177793	    -10.60725271	     36.19261247	      8.67596510	     21.39129322	    -23.18732859	     -0.40469523	      5.23324697	      8.99188011	      2.14687925	     -3.84470267	      2.11324094	      6.66873820	      6.05890676	    -15.10064681	     -6.26706807	     55.36975670	     89.95437384	      0.00000000	      0.00000000	    -10.77171032	      5.71919399	     23.95842440	     21.80768794	     89.95437384	      0.00000000	      0.00000000
      0.82000000	     -3.59938898	     -2.81506163	     -2.19880168	      0.20753412	      0.87580192	      1.53788456	     -7.59087628	     -0.07640973	    -13.37005747	    -20.91092980	     -0.36496457	      8.65545156	      6.77001942	    -10.51369992	     36.51515981	      8.93138696	     22.32441038	    -22.78324295	     -0.39764260	      5.36697766	      8.13751395	      1.55789089	     -3.58717621	      2.01072588	      6.90732785	      6.17475616	    -15.37019379	     -5.87612348	     55.81833586	     89.95437384	      0.00000000	      0.00000000	    -10.99790872	      5.70808982	     24.19243829	     21.04349818	     89.95437384	      0.00000000	      0.00000000
      0.83000000	     -3.67811176	     -2.86606091	     -2.39577334	      0.22213178	      0.87399315	      1.53634948	     -8.07974699	     -0.28947877	    -12.78214159	    -21.64481838	     -0.37777335	      8.03360459	      6.66129048	    -10.31598102	     36.78445878	      8.92999064	     22.35224606	    -22.80915003	     -0.39809477	      5.58599867	      8.10295566	      1.44558970	     -3.38608123	      1.94493397	      6.92847838	      6.24991780	    -15.60740376	     -5.51176418	     56.20263440	     89.95437384	      0.00000000	      0.00000000	    -11.28342881	      5.74583997	     24.07627036	     20.49733172	     89.95437384	      0.00000000	      0.00000000
      0.84000000	     -3.58746444	     -2.73959003	     -2.79108369	      0.23714104	      0.87252033	      1.53509392	     -8.62466137	     -0.74389260	    -11.93316684	    -22.58383013	     -0.39416219	      7.15986845	      6.46896746	    -10.05754431	     36.79767526	      8.85041391	     22.11870131	    -23.37892533	     -0.40803922	      5.79361948	      8.34506787	      1.36440114	     -3.36429199	      1.62852526	      7.14744055	      6.23313876	    -15.80425512	     -5.20635063	     56.58296362	     89.95437384	      0.00000000	      0.00000000	    -11.43914718	      5.84306881	     24.05188731	     19.88832880	     89.95437384	      0.00000000	      0.00000000
      0.85000000	     -3.41182642	     -2.55667033	     -3.33073494	      0.25267309	      0.87147144	      1.53389070	     -9.26090017	     -1.22290888	    -10.71816015	    -23.44767916	     -0.40923920	      6.05475845	      5.29758189	     -9.78292098	     36.44586714	      8.54198030	     21.38924916	    -23.90639198	     -0.41724525	      6.16356191	     10.73758610	      1.27259560	     -3.36915346	      1.23677675	      7.60683699	      5.99111973	    -15.97340104	     -5.07381614	     56.91393734	     89.95437384	      0.00000000	      0.00000000	    -11.29013768	      5.83733833	     24.94882801	     18.98712919	     89.95437384	      0.00000000	      0.00000000
      0.86000000	     -3.10744553	     -2.34600809	     -3.67731740	      0.26873076	      0.87058040	      1.53236066	     -9.97351639	     -1.80024156	     -9.91175857	    -24.46866948	     -0.42705885	      4.69388194	      4.77567526	     -9.45280713	     35.98843429	      8.15158905	     20.71012446	    -24.97342961	     -0.43586857	      6.56994012	     12.26049789	      1.41368148	     -3.45550690	      0.79831193	      7.81575077	      5.65456638	    -16.05298201	     -4.99747692	     57.22836956	     89.95437384	      0.00000000	      0.00000000	    -11.34575612	      5.95633783	     25.05446397	     18.43422228	     89.95437384	      0.00000000	      0.00000000
